#N canvas 286 23 1280 706 10;
#X obj 437 439 osc~, f 5;
#X obj 435 540 dac~;
#X floatatom 437 374 5 0 0 0 - - -;
#X obj 437 485 *~;
#X obj 468 143 route list;
#X obj 468 107 receive fromGUI;
#X obj 466 177 route /myButton /myXYSlider;
#X floatatom 535 282 5 0 0 0 - - -;
#X floatatom 600 278 5 0 0 0 - - -;
#X obj 538 224 unpack 0 0;
#X obj 536 334 * 24;
#X obj 535 382 + 48;
#X obj 432 348 mtof;
#X obj 247 374 noise~;
#X obj 171 418 line~;
#X floatatom 574 491 5 0 0 0 - - -;
#X obj 199 459 *~;
#X obj 426 216 sel 1;
#X msg 170 376 1 \, 0 100;
#X obj 744 132 route list;
#X obj 814 213 unpack 0 0;
#X obj 744 96 receive fromSystem;
#X floatatom 880 262 5 0 0 0 - - -;
#X floatatom 810 248 5 0 0 0 - - -;
#X obj 811 294 + 1;
#X obj 810 341 * 10;
#X obj 892 302 + 1;
#X obj 891 350 * 10;
#X obj 811 396 osc~;
#X obj 858 440 *~;
#X obj 437 403 +~;
#X obj 742 166 route /tilts /shake;
#X connect 0 0 3 0;
#X connect 2 0 30 0;
#X connect 3 0 1 0;
#X connect 3 0 1 1;
#X connect 4 0 6 0;
#X connect 5 0 4 0;
#X connect 6 0 17 0;
#X connect 6 1 9 0;
#X connect 7 0 10 0;
#X connect 9 0 7 0;
#X connect 9 1 8 0;
#X connect 9 1 15 0;
#X connect 10 0 11 0;
#X connect 11 0 12 0;
#X connect 12 0 2 0;
#X connect 13 0 16 1;
#X connect 14 0 16 0;
#X connect 15 0 3 1;
#X connect 16 0 1 0;
#X connect 16 0 1 1;
#X connect 17 0 18 0;
#X connect 18 0 14 0;
#X connect 19 0 31 0;
#X connect 20 0 23 0;
#X connect 20 1 22 0;
#X connect 21 0 19 0;
#X connect 22 0 26 0;
#X connect 23 0 24 0;
#X connect 24 0 25 0;
#X connect 25 0 28 0;
#X connect 26 0 27 0;
#X connect 27 0 29 1;
#X connect 28 0 29 0;
#X connect 29 0 30 1;
#X connect 30 0 0 0;
#X connect 31 0 20 0;
