#N canvas 293 47 764 566 10;
#X obj 235 244 loadbang;
#X floatatom 234 296 5 0 0 0 - - -;
#X obj 234 321 vd~ buffer 1000;
#X obj 168 215 bng 15 250 50 0 empty empty empty 17 7 0 10 -262144
-1 -1;
#X msg 179 313 0;
#X msg 140 313 1;
#X obj 179 286 del;
#X obj 78 314 noise~;
#X obj 81 360 *~;
#X obj 80 403 delwrite~ buffer 1000;
#X obj 79 430 delread~ buffer 1000;
#X msg 233 270 5;
#X obj 327 489 vcf~;
#X obj 328 530 dac~;
#X obj 438 295 bang;
#X obj 438 319 -;
#X floatatom 372 466 5 0 0 0 - - -;
#X obj 367 257 osc~;
#X floatatom 486 294 5 0 0 0 - - -;
#X floatatom 438 395 5 0 0 0 - - -;
#X obj 181 371 *~ 0.996;
#X obj 367 350 *~ 2000;
#X text 429 463 Controls resonance \, i.e. how far above or below the
center frequency the filter still allows sound to pass. Between 0-10.
;
#X text 531 271 max freq;
#X text 477 373 min freq;
#X msg 438 373 100;
#X text 512 216 oscillation freq in the range 0-4;
#X obj 357 409 +~ 500;
#X msg 486 269 1000;
#X text 496 338 wah-wah effect;
#X obj 337 53 route list;
#X obj 407 134 unpack 0 0;
#X obj 337 17 receive fromSystem;
#X floatatom 201 32 5 0 0 0 - - -;
#X obj 205 126 /;
#X msg 238 102 2;
#X obj 210 163 *;
#X msg 245 139 4;
#X floatatom 365 229 5 0 0 0 - - -;
#X floatatom 517 24 5 0 0 0 - - -;
#X obj 521 118 /;
#X msg 554 94 2;
#X obj 526 155 *;
#X msg 561 131 10;
#X text 517 6 scaling y tilt between 0 and 10;
#X text 7 118 scaling x tilt between 0 and 4;
#X obj 201 87 +;
#X msg 225 55 1;
#X msg 541 47 1;
#X obj 517 79 +;
#X text 6 500 Karplus-Strong patch from http://www.pd-tutorial.com/english/ch03s04.html
;
#X obj 335 87 route /tilts;
#X connect 0 0 11 0;
#X connect 1 0 2 0;
#X connect 2 0 20 0;
#X connect 3 0 6 0;
#X connect 3 0 5 0;
#X connect 4 0 8 1;
#X connect 5 0 8 1;
#X connect 6 0 4 0;
#X connect 7 0 8 0;
#X connect 8 0 9 0;
#X connect 10 0 12 0;
#X connect 11 0 1 0;
#X connect 11 0 6 1;
#X connect 12 0 13 0;
#X connect 12 0 13 1;
#X connect 14 0 15 0;
#X connect 15 0 21 1;
#X connect 16 0 12 2;
#X connect 17 0 21 0;
#X connect 18 0 15 1;
#X connect 19 0 14 0;
#X connect 19 0 27 1;
#X connect 20 0 9 0;
#X connect 21 0 27 0;
#X connect 25 0 19 0;
#X connect 27 0 12 1;
#X connect 28 0 18 0;
#X connect 30 0 51 0;
#X connect 31 0 33 0;
#X connect 31 1 39 0;
#X connect 32 0 30 0;
#X connect 33 0 46 0;
#X connect 34 0 36 0;
#X connect 35 0 34 1;
#X connect 36 0 38 0;
#X connect 37 0 36 1;
#X connect 38 0 17 0;
#X connect 39 0 49 0;
#X connect 40 0 42 0;
#X connect 41 0 40 1;
#X connect 42 0 16 0;
#X connect 43 0 42 1;
#X connect 46 0 34 0;
#X connect 47 0 46 1;
#X connect 48 0 49 1;
#X connect 49 0 40 0;
#X connect 51 0 31 0;
